<svg width="365" height="341" viewBox="0 0 365 341" fill="none" xmlns="http://www.w3.org/2000/svg">
<rect width="365" height="341" rx="20" fill="white"/>
<path d="M273.109 88.9634L228.295 44.1495C225.884 41.7357 222.672 40.4066 219.261 40.4066H99.6416C92.5941 40.4066 86.8617 46.139 86.8617 53.1865V280.527C86.8617 287.574 92.5941 293.307 99.6416 293.307H264.072C271.119 293.307 276.854 287.574 276.854 280.527V98.0004C276.854 94.5862 275.522 91.3744 273.109 88.9634ZM227.022 54.7966L262.459 90.2363H230.61C228.632 90.2363 227.025 88.6262 227.025 86.648V54.7966H227.022ZM264.072 284.877H99.6416C97.2419 284.877 95.2917 282.926 95.2917 280.527V53.1865C95.2917 50.7867 97.2419 48.8366 99.6416 48.8366H218.595V86.648C218.595 93.2739 223.984 98.6663 230.61 98.6663H268.424V280.527C268.424 282.926 266.471 284.877 264.072 284.877Z" fill="black"/>
<path d="M189.632 244.621H174.081C170.732 244.621 168.003 241.892 168.003 238.543V236.23C168.003 236.033 167.897 235.842 167.762 235.797C166.129 235.232 164.499 234.558 162.928 233.788C162.81 233.726 162.619 233.782 162.49 233.914L160.827 235.575C158.461 237.941 154.608 237.944 152.236 235.572L141.241 224.577C138.872 222.208 138.872 218.353 141.241 215.984L142.902 214.323C143.028 214.194 143.084 214.003 143.025 213.885C142.258 212.308 141.581 210.684 141.016 209.046C140.977 208.931 140.803 208.81 140.586 208.81H138.271C134.921 208.81 132.195 206.081 132.195 202.732V187.184C132.195 183.835 134.921 181.106 138.271 181.106H140.586C140.805 181.106 140.977 180.985 141.019 180.867C141.584 179.232 142.258 177.608 143.025 176.034C143.084 175.913 143.028 175.722 142.904 175.596L141.244 173.932C138.875 171.563 138.875 167.708 141.244 165.339L152.239 154.344C154.608 151.972 158.463 151.975 160.832 154.344L162.493 156.004C162.619 156.131 162.813 156.19 162.931 156.128C164.508 155.361 166.135 154.684 167.767 154.119C167.902 154.074 168.006 153.886 168.006 153.689V151.373C168.006 148.024 170.732 145.298 174.084 145.298H189.635C192.984 145.298 195.713 148.024 195.713 151.373V153.689C195.713 153.908 195.834 154.08 195.952 154.122C197.587 154.686 199.211 155.361 200.785 156.128C200.903 156.179 201.099 156.131 201.223 156.007L202.887 154.346C205.261 151.972 209.111 151.975 211.48 154.346L222.475 165.342C224.847 167.711 224.847 171.566 222.475 173.935L220.82 175.593C220.671 175.742 220.64 175.933 220.691 176.034C221.458 177.608 222.138 179.237 222.7 180.876C222.745 181.002 222.936 181.109 223.13 181.109H225.445C228.795 181.109 231.523 183.837 231.523 187.187V202.735C231.523 206.084 228.795 208.813 225.445 208.813H223.133C222.936 208.813 222.742 208.919 222.697 209.054C222.138 210.684 221.461 212.314 220.691 213.888C220.637 213.989 220.671 214.18 220.814 214.323L222.478 215.989C224.844 218.355 224.844 222.211 222.475 224.58L211.48 235.575C209.108 237.944 205.258 237.947 202.887 235.575L201.229 233.92C201.083 233.774 200.894 233.743 200.788 233.791C199.214 234.558 197.584 235.238 195.946 235.8C195.819 235.845 195.713 236.036 195.713 236.23V238.545C195.71 241.892 192.981 244.621 189.632 244.621ZM176.433 236.191H187.277C187.291 232.405 189.666 229.05 193.189 227.828C194.51 227.373 195.817 226.83 197.078 226.212C200.434 224.568 204.497 225.265 207.178 227.946L214.846 220.278C212.168 217.602 211.468 213.542 213.112 210.178C213.73 208.917 214.273 207.61 214.725 206.298C215.95 202.766 219.305 200.394 223.091 200.38V189.533C219.305 189.519 215.95 187.145 214.728 183.621C214.273 182.3 213.73 180.994 213.112 179.732C211.468 176.371 212.165 172.314 214.846 169.633L207.178 161.964C204.502 164.645 200.442 165.342 197.078 163.698C195.817 163.08 194.51 162.538 193.195 162.085C189.666 160.866 187.294 157.508 187.28 153.723H176.433C176.416 157.508 174.042 160.866 170.518 162.085C169.206 162.538 167.897 163.08 166.629 163.701C163.274 165.345 159.216 164.645 156.536 161.967L148.867 169.636C151.548 172.316 152.245 176.374 150.601 179.738C149.983 180.999 149.44 182.306 148.988 183.621C147.768 187.15 144.411 189.522 140.625 189.536V200.38C144.411 200.397 147.768 202.768 148.985 206.292C149.44 207.61 149.983 208.917 150.601 210.181C152.242 213.539 151.548 217.597 148.867 220.278L156.536 227.946C159.214 225.268 163.274 224.571 166.632 226.212C167.897 226.83 169.2 227.373 170.513 227.825C174.045 229.048 176.416 232.405 176.433 236.191Z" fill="black"/>
<path d="M181.882 218.842C175.545 218.842 169.467 216.346 164.966 211.845C160.014 206.893 157.494 200.037 158.047 193.029C158.958 181.469 168.366 172.061 179.929 171.15C186.931 170.6 193.793 173.117 198.745 178.068C203.696 183.02 206.216 189.879 205.666 196.887C204.755 208.447 195.347 217.855 183.784 218.766C183.146 218.813 182.514 218.842 181.882 218.842ZM181.829 179.504C181.418 179.504 181.005 179.518 180.592 179.552C173.12 180.142 167.042 186.22 166.452 193.692C166.095 198.236 167.725 202.681 170.929 205.885C174.132 209.088 178.577 210.726 183.121 210.364C190.593 209.774 196.671 203.696 197.261 196.224C197.618 191.68 195.988 187.235 192.782 184.031C189.874 181.115 185.934 179.504 181.829 179.504Z" fill="black"/>
</svg>
